# xmcd CD database file
#
# Track frame offsets:
#	150
#	12075
#	31697
#	41282
#	57517
#	69360
#	80152
#	88070
#	102452
#	118390
#	129517
#	138577
#	154230
#	168000
#	181237
#	193805
#	205015
#	215225
#	225517
#	250550
#	271900
#	284622
#	296080
#	309415
#	321560
#	347715
#
# Disc length: 4775 seconds
#
# Revision: 1
# Processed by: cddbd v1.5.2PL0 Copyright (c) Steve Scherf et al.
# Submitted via: CDex 1.51
#
DISCID=8612a51a
DTITLE=Johnny Cash - Personal File [CD 1)
DYEAR=2006
DGENRE=Country
TTITLE0=The Letter Edged In Black
TTITLE1=There's A Mother Always Waiting At Home
TTITLE2=The Engineer's Dying Child
TTITLE3=My Mother Was A Lady
TTITLE4=The Winding Stream
TTITLE5=Far Away Places
TTITLE6=Galway Bay
TTITLE7=When I Stop Dreaming
TTITLE8=Drink To Me Only With Thine Eyes
TTITLE9=I'll Take You Home Again Kathleen
TTITLE10=Missouri Waltz
TTITLE11=Louisiana Man
TTITLE12=Paradise
TTITLE13=I Don't Believe You Wanted To Leave
TTITLE14=Jim, I Wore A Tie Today
TTITLE15=Saginaw, Michigan
TTITLE16=When It's Springtime In Alaska (It's Forty Below)
TTITLE17=Girl In Saskatoon
TTITLE18=The Cremation Of Sam McGee
TTITLE19=Tiger Whitehead
TTITLE20=It's All Over
TTITLE21=A Fast Song
TTITLE22=Virgie
TTITLE23=I Wanted So
TTITLE24=It Takes One To Know Me
TTITLE25=Data
EXTD=YEAR: 2006
EXTT0=
EXTT1=
EXTT2=
EXTT3=
EXTT4=
EXTT5=
EXTT6=
EXTT7=
EXTT8=
EXTT9=
EXTT10=
EXTT11=
EXTT12=
EXTT13=
EXTT14=
EXTT15=
EXTT16=
EXTT17=
EXTT18=
EXTT19=
EXTT20=
EXTT21=
EXTT22=
EXTT23=
EXTT24=
EXTT25=
PLAYORDER=
